<svg width="70" height="56" viewBox="0 0 70 56" fill="none" xmlns="http://www.w3.org/2000/svg">
<path d="M67.6711 8.63687C66.2738 7.173 64.3441 6.30798 62.1483 6.30798H51.1027V6.1749C51.1027 4.5114 50.4373 2.91444 49.3061 1.8498C48.1749 0.718622 46.6445 0.0532227 44.981 0.0532227H25.019C23.289 0.0532227 21.7586 0.718622 20.6274 1.8498C19.4962 2.98098 18.8308 4.5114 18.8308 6.1749V6.30798H7.85171C5.65589 6.30798 3.72624 7.173 2.3289 8.63687C0.931559 10.0342 0 12.0304 0 14.1597V47.2966C0 49.4924 0.865019 51.422 2.3289 52.8194C3.72624 54.2167 5.72243 55.1483 7.85171 55.1483H62.1483C64.3441 55.1483 66.2738 54.2833 67.6711 52.8194C69.0684 51.422 70 49.4258 70 47.2966V14.1597C70 11.9639 69.135 10.0342 67.6711 8.63687ZM66.5399 47.2966H66.4734C66.4734 48.4943 66.0076 49.5589 65.2091 50.3574C64.4106 51.1559 63.346 51.6217 62.1483 51.6217H7.85171C6.65399 51.6217 5.58935 51.1559 4.79087 50.3574C3.9924 49.5589 3.52662 48.4943 3.52662 47.2966V14.1597C3.52662 12.962 3.9924 11.8973 4.79087 11.0988C5.58935 10.3004 6.65399 9.83459 7.85171 9.83459H20.6939C21.692 9.83459 22.4905 9.03611 22.4905 8.03801V6.10836C22.4905 5.37642 22.7567 4.71102 23.2224 4.24524C23.6882 3.77946 24.3536 3.5133 25.0856 3.5133H44.981C45.7129 3.5133 46.3783 3.77946 46.8441 4.24524C47.3099 4.71102 47.576 5.37642 47.576 6.10836V8.03801C47.576 9.03611 48.3745 9.83459 49.3726 9.83459H62.2148C63.4125 9.83459 64.4772 10.3004 65.2757 11.0988C66.0741 11.8973 66.5399 12.962 66.5399 14.1597V47.2966Z" fill="#E4E4E4"/>
<path d="M35.0002 14.3589C30.4755 14.3589 26.35 16.222 23.4222 19.1498C20.4279 22.1441 18.6313 26.203 18.6313 30.7277C18.6313 35.2524 20.4945 39.3779 23.4222 42.3057C26.4165 45.3 30.4755 47.0965 35.0002 47.0965C39.5249 47.0965 43.6504 45.2334 46.5781 42.3057C49.5724 39.3114 51.369 35.2524 51.369 30.7277C51.369 26.203 49.5059 22.0775 46.5781 19.1498C43.6504 16.222 39.5249 14.3589 35.0002 14.3589ZM44.0496 39.8437C41.7207 42.106 38.5268 43.5699 35.0002 43.5699C31.4736 43.5699 28.2796 42.106 25.9507 39.8437C23.6218 37.5148 22.2245 34.3209 22.2245 30.7943C22.2245 27.2676 23.6884 24.0737 25.9507 21.7448C28.2796 19.4159 31.4736 18.0186 35.0002 18.0186C38.5268 18.0186 41.7207 19.4825 44.0496 21.7448C46.3785 24.0737 47.7758 27.2676 47.7758 30.7943C47.8424 34.3209 46.3785 37.5148 44.0496 39.8437Z" fill="#E4E4E4"/>
<path d="M58.6882 20.8139C60.4889 20.8139 61.9486 19.3541 61.9486 17.5534C61.9486 15.7527 60.4889 14.293 58.6882 14.293C56.8875 14.293 55.4277 15.7527 55.4277 17.5534C55.4277 19.3541 56.8875 20.8139 58.6882 20.8139Z" fill="#E4E4E4"/>
</svg>
