<svg width="86" height="67" viewBox="0 0 86 67" fill="none" xmlns="http://www.w3.org/2000/svg">
<path d="M82.2281 10.4833C80.5302 8.70456 78.1854 7.65346 75.5173 7.65346H62.0956V7.49175C62.0956 5.47041 61.287 3.52993 59.9125 2.23627C58.538 0.861758 56.6784 0.0532227 54.657 0.0532227H30.4009C28.2988 0.0532227 26.4391 0.861758 25.0646 2.23627C23.6901 3.61078 22.8816 5.47041 22.8816 7.49175V7.65346H9.54072C6.87256 7.65346 4.5278 8.70456 2.82988 10.4833C1.13195 12.1813 0 14.6069 0 17.1942V57.4593C0 60.1274 1.0511 62.4722 2.82988 64.1701C4.5278 65.8681 6.95341 67 9.54072 67H75.5173C78.1854 67 80.5302 65.9489 82.2281 64.1701C83.926 62.4722 85.058 60.0466 85.058 57.4593V17.1942C85.058 14.526 84.0069 12.1813 82.2281 10.4833ZM80.8536 57.4593H80.7727C80.7727 58.9146 80.2068 60.2083 79.2365 61.1785C78.2663 62.1488 76.9726 62.7148 75.5173 62.7148H9.54072C8.08536 62.7148 6.7917 62.1488 5.82146 61.1785C4.85122 60.2083 4.28524 58.9146 4.28524 57.4593V17.1942C4.28524 15.7388 4.85122 14.4452 5.82146 13.4749C6.7917 12.5047 8.08536 11.9387 9.54072 11.9387H25.1455C26.3583 11.9387 27.3285 10.9685 27.3285 9.75565V7.4109C27.3285 6.52151 27.6519 5.71297 28.2179 5.147C28.7839 4.58102 29.5924 4.25761 30.4818 4.25761H54.657C55.5464 4.25761 56.355 4.58102 56.9209 5.147C57.4869 5.71297 57.8103 6.52151 57.8103 7.4109V9.75565C57.8103 10.9685 58.7806 11.9387 59.9934 11.9387H75.5981C77.0535 11.9387 78.3471 12.5047 79.3174 13.4749C80.2876 14.4452 80.8536 15.7388 80.8536 17.1942V57.4593Z" fill="#E4E4E4"/>
<path d="M42.5291 17.4365C37.0311 17.4365 32.0182 19.7004 28.4606 23.258C24.8222 26.8964 22.6392 31.8285 22.6392 37.3265C22.6392 42.8246 24.9031 47.8375 28.4606 51.395C32.099 55.0334 37.0311 57.2165 42.5291 57.2165C48.0272 57.2165 53.0401 54.9526 56.5977 51.395C60.2361 47.7566 62.4191 42.8246 62.4191 37.3265C62.4191 31.8285 60.1552 26.8155 56.5977 23.258C53.0401 19.7004 48.0272 17.4365 42.5291 17.4365ZM53.5252 48.4035C50.6954 51.1525 46.8144 52.9313 42.5291 52.9313C38.2439 52.9313 34.3629 51.1525 31.5331 48.4035C28.7032 45.5736 27.0053 41.6926 27.0053 37.4074C27.0053 33.1221 28.784 29.2411 31.5331 26.4113C34.3629 23.5814 38.2439 21.8835 42.5291 21.8835C46.8144 21.8835 50.6954 23.6622 53.5252 26.4113C56.3551 29.2411 58.053 33.1221 58.053 37.4074C58.1339 41.6926 56.3551 45.5736 53.5252 48.4035Z" fill="#E4E4E4"/>
<path d="M71.3129 25.2796C73.501 25.2796 75.2747 23.5058 75.2747 21.3178C75.2747 19.1297 73.501 17.356 71.3129 17.356C69.1248 17.356 67.3511 19.1297 67.3511 21.3178C67.3511 23.5058 69.1248 25.2796 71.3129 25.2796Z" fill="#E4E4E4"/>
</svg>
