<?xml version="1.0"?>
<svg xmlns="http://www.w3.org/2000/svg" viewBox="0 0 128 128" width="512" height="512"><g id="Layer_2" data-name="Layer 2"><path d="M103,6.238H87.25V1.772A1.75,1.75,0,0,0,85.5.022h-43a1.75,1.75,0,0,0-1.75,1.75V6.238H25a6.758,6.758,0,0,0-6.75,6.75v108.23a6.758,6.758,0,0,0,6.75,6.75h78a6.758,6.758,0,0,0,6.75-6.75V12.988A6.758,6.758,0,0,0,103,6.238Zm-6.75,13.5v94.73H31.75V19.738Zm-52-16.216h39.5V16.238H44.25V3.522Zm62,117.7a3.254,3.254,0,0,1-3.25,3.25H25a3.254,3.254,0,0,1-3.25-3.25V12.988A3.254,3.254,0,0,1,25,9.738H40.75v6.5H30a1.749,1.749,0,0,0-1.75,1.75v98.23a1.749,1.749,0,0,0,1.75,1.75H98a1.749,1.749,0,0,0,1.75-1.75V17.988A1.749,1.749,0,0,0,98,16.238H87.25v-6.5H103a3.254,3.254,0,0,1,3.25,3.25Z"/><path d="M52.062,11.631H75.937a1.75,1.75,0,0,0,0-3.5H52.062a1.75,1.75,0,0,0,0,3.5Z"/><path d="M42.5,63.46h8.875a1.749,1.749,0,0,0,1.75-1.75V52.835a1.749,1.749,0,0,0-1.75-1.75H42.5a1.749,1.749,0,0,0-1.75,1.75V61.71A1.749,1.749,0,0,0,42.5,63.46Zm1.75-8.875h5.375V59.96H44.25Z"/><path d="M42.5,83.121h8.875a1.749,1.749,0,0,0,1.75-1.75V72.5a1.749,1.749,0,0,0-1.75-1.75H42.5a1.749,1.749,0,0,0-1.75,1.75v8.875A1.749,1.749,0,0,0,42.5,83.121Zm1.75-8.875h5.375v5.375H44.25Z"/><path d="M42.5,102.781h8.875a1.749,1.749,0,0,0,1.75-1.75V92.156a1.749,1.749,0,0,0-1.75-1.75H42.5a1.749,1.749,0,0,0-1.75,1.75v8.875A1.749,1.749,0,0,0,42.5,102.781Zm1.75-8.875h5.375v5.375H44.25Z"/><path d="M62,39.362H85.5a1.75,1.75,0,0,0,0-3.5H62a1.75,1.75,0,0,0,0,3.5Z"/><path d="M62,59.022H85.5a1.75,1.75,0,0,0,0-3.5H62a1.75,1.75,0,0,0,0,3.5Z"/><path d="M62,78.684H85.5a1.75,1.75,0,0,0,0-3.5H62a1.75,1.75,0,0,0,0,3.5Z"/><path d="M62,98.344H85.5a1.75,1.75,0,0,0,0-3.5H62a1.75,1.75,0,0,0,0,3.5Z"/><path d="M44.7,43.287a1.768,1.768,0,0,0,2.73-.323l5.438-8.875a1.75,1.75,0,1,0-2.984-1.828L45.6,39.242l-1.867-1.866a1.75,1.75,0,0,0-2.474,2.475Z"/></g></svg>
