<svg width="86" height="86" viewBox="0 0 86 86" fill="none" xmlns="http://www.w3.org/2000/svg">
<g clip-path="url(#clip0)">
<path d="M41.1307 84.1307C18.4528 84.1307 0 65.6779 0 43C0 20.3222 18.4528 1.86938 41.1307 1.86938C58.1471 1.86938 73.1712 12.107 79.4118 27.9541C79.9801 29.3932 79.2694 31.0199 77.8302 31.5916C76.3904 32.1531 74.7637 31.4533 74.192 30.0067C68.8037 16.3211 55.8254 7.47808 41.1307 7.47808C21.5447 7.47808 5.6087 23.4148 5.6087 43C5.6087 62.5853 21.5447 78.522 41.1307 78.522C55.8254 78.522 68.8037 69.679 74.192 55.9975C74.7602 54.5502 76.387 53.8511 77.8302 54.4119C79.2694 54.9801 79.9801 56.6103 79.4118 58.0501C73.1712 73.8931 58.1471 84.1307 41.1307 84.1307Z" fill="#636363"/>
<path d="M41.2 80C20.6894 80 4 63.4004 4 43C4 22.5996 20.6894 6 41.2 6C56.5903 6 70.1786 15.2095 75.8228 29.4651C76.3368 30.7597 75.694 32.223 74.3924 32.7373C73.0902 33.2423 71.6189 32.6129 71.1019 31.3115C66.2285 19.0003 54.4905 11.0454 41.2 11.0454C23.4858 11.0454 9.0727 25.3817 9.0727 43C9.0727 60.6183 23.4858 74.9546 41.2 74.9546C54.4905 74.9546 66.2285 66.9997 71.1019 54.6922C71.6158 53.3902 73.0871 52.7614 74.3924 53.2658C75.694 53.777 76.3368 55.2434 75.8228 56.5386C70.1786 70.7905 56.5903 80 41.2 80Z" fill="white"/>
<path d="M21.3619 39.4L64.6202 40.3587C65.8553 40.3861 66.8298 41.6644 66.7955 43.212C66.7612 44.7596 65.731 45.9934 64.4959 45.966L21.2376 45.0073C20.0025 44.9799 19.028 43.7017 19.0623 42.1541C19.0966 40.6065 20.1268 39.3726 21.3619 39.4Z" fill="#636363"/>
<path d="M49.4319 25.0621C50.1499 25.078 50.8613 25.3664 51.3953 25.9281L66.0165 41.2121C67.0874 42.3323 67.0481 44.1078 65.9286 45.1787L50.6446 59.8C49.5251 60.8709 47.7496 60.8315 46.678 59.7121C45.6071 58.5926 45.6464 56.817 46.7659 55.7461L60.0251 43.0619L47.3409 29.8027C46.27 28.6832 46.3093 26.9077 47.4288 25.8368C47.9905 25.3027 48.7146 25.0462 49.4319 25.0621V25.0621Z" fill="#636363"/>
</g>
<defs>
<clipPath id="clip0">
<rect width="86" height="86" fill="white"/>
</clipPath>
</defs>
</svg>
